<svg width="24" height="24" viewBox="0 0 24 24" fill="none" xmlns="http://www.w3.org/2000/svg">
<path d="M4.5 6.99999L7 3.66666H17L19.5 6.99999M4.5 6.99999V18.6667C4.5 19.1087 4.67559 19.5326 4.98816 19.8452C5.30072 20.1577 5.72464 20.3333 6.16667 20.3333H17.8333C18.2754 20.3333 18.6993 20.1577 19.0118 19.8452C19.3244 19.5326 19.5 19.1087 19.5 18.6667V6.99999M4.5 6.99999H19.5M15.3333 10.3333C15.3333 11.2174 14.9821 12.0652 14.357 12.6903C13.7319 13.3155 12.8841 13.6667 12 13.6667C11.1159 13.6667 10.2681 13.3155 9.64298 12.6903C9.01786 12.0652 8.66667 11.2174 8.66667 10.3333" stroke="#656565" stroke-width="1.66667" stroke-linecap="round" stroke-linejoin="round"/>
</svg>
